<?xml version="1.0" encoding="utf-8"?>
<svg width="1366" height="1024" viewBox="-683 -512 1366 1024" xmlns="http://www.w3.org/2000/svg">
  <style>
svg { background-color:#FFFEFE; }

#looom {
--version:3; --tempo:120; --musicTime:0; --gridEnabled:0; --imageAlpha:1.00; 
}

#t0 {
--visible:1; --timeOffset:1; --speed:12; --bookmarkIndex:-1; --latched:0; --playMode:0; --masked:0; --blendMode:0; --pressureEnabled:0; 
stroke:#547FA7; stroke-opacity:1; fill-opacity:0; stroke-width:10; stroke-linecap:round; stroke-linejoin:round;
}
@keyframes t0 { 0% { opacity: 1; } 8.333333% { opacity: 0; } }
#t0 .frame { animation:t0 1s calc(var(--index) * 0.08333334s) steps(1) infinite; }

</style>
  <g id="w0" class="weave">
    <g id="t0" class="thread">
      <g id="f0" style="--index:0; opacity:1;" class="frame">
        <path d="M-99.32,205.31L-95.40,202.39L-90.71,196.16L-83.81,183.61L-75.81,165.64L-63.76,131.39L-58.99,113.81L-50.11,74.86L-39.25,42.02L-33.31,28.81L-14.09,-5.69L-4.02,-19.02L16.49,-39.33L34.83,-49.41L47.82,-50.47L60.93,-42.77L64.70,-29.03" />
      </g>
      <g id="f1" style="--index:1; opacity:0;" class="frame">
        <path d="M63.24,-30.44L66.89,-20.81L69.08,-3.23L69.01,14.63L65.70,30.22L54.84,60.86L35.50,107.58L20.41,147.19L13.19,175.78L26.89,245.66L63.05,255.82L82.65,252.49L94.30,247.85L105.16,241.74L128.06,225.08L149.39,204.78L168.73,182.63L184.68,158.53L199.12,127.88L211.44,88.61L218.92,42.16L220.30,-4.42L218.86,-38.13L215.80,-64.08L208.12,-102.42L194.16,-151.60L175.61,-198.83L162.56,-219.47L144.09,-237.72" />
      </g>
      <g id="f2" style="--index:2; opacity:0;" class="frame">
        <path d="M147.99,-231.41L144.70,-245.61L144.55,-256.69L160.58,-268.24L168.40,-270.75L185.80,-274.41L200.58,-274.94L206.27,-274.14L226.99,-266.32L247.00,-253.97L268.72,-237.31L298.96,-210.25L320.62,-178.74L330.89,-148.94L336.13,-115.16L336.31,-78.41L331.75,-39.98L324.06,1.61L314.72,39.44L305.13,71.55L297.04,102.67L292.29,128.35L290.83,150.44L291.17,170.08L294.61,187.80L302.34,198.49L306.84,201.33L322.68,203.33L325.33,202.46L338.50,194.24" />
      </g>
      <g id="f3" style="--index:3; opacity:0;" class="frame">
        <path d="M334.33,197.22L342.00,201.33L344.46,199.67L350.55,193.03L362.53,175.78L369.16,164.05L379.69,142.02L384.65,128.55L389.15,112.09L400.68,47.13L407.43,29.61L415.92,19.66L424.32,16.02L432.47,15.61L439.95,17.14L449.60,23.84L455.96,33.80L461.19,45.47L465.38,56.89L468.94,74.61L469.73,101.61L468.02,120.05L462.98,147.45L457.23,168.49L448.95,190.99L445.70,197.81L424.44,234.71L403.33,266.96L396.64,279.16L393.78,286.86" />
      </g>
      <g id="f4" style="--index:4; opacity:0;" class="frame">
        <path d="M393.78,286.86L393.38,287.86" />
        <path d="M395.11,280.75L393.07,284.67L378.02,304.77L359.95,322.89L353.32,327.53L339.50,335.03L323.72,341.07L315.59,343.07" />
      </g>
      <g id="f5" style="--index:5; opacity:0;" class="frame">
        <path d="M315.59,343.07L303.15,344.25L290.35,343.78L265.59,340.35L253.02,336.43L240.49,331.05L213.09,316.13L200.25,307.24L190.18,298.21L179.26,283.14L177.07,278.30" />
        <path d="M176.67,275.19L166.60,259.13L148.72,221.17L139.72,211.42L115.68,198.88" />
      </g>
      <g id="f6" style="--index:6; opacity:0;" class="frame">
        <path d="M-508.07,-200.03L-503.90,-205.60L-498.73,-214.63L-489.33,-222.13L-478.13,-226.50L-472.57,-226.97L-467.61,-225.17L-465.09,-223.11L-462.23,-219.06L-460.31,-213.96L-458.79,-203.61L-458.46,-180.13L-469.07,-115.83L-469.53,-100.77L-468.07,-91.81" />
        <path d="M115.16,201.27L61.13,195.56L22.78,198.61L15.17,202.19L1.40,210.42L-27.81,234.77" />
      </g>
      <g id="f7" style="--index:7; opacity:0;" class="frame">
        <path d="M-466.42,-134.14L-467.27,-92.67L-463.23,-81.78L-459.67,-78.47L-439.20,-68.78L-433.05,-69.52L-418.15,-75.28L-409.08,-80.53L-403.58,-85.38L-391.53,-97.64L-381.92,-110.45L-377.29,-121.59L-375.83,-128.70" />
        <path d="M-19.93,227.41L-28.39,230.99L-53.30,245.39L-95.67,267.42L-111.64,274.78L-124.48,279.42L-140.84,283.88L-161.29,287.19" />
      </g>
      <g id="f8" style="--index:8; opacity:0;" class="frame">
        <path d="M-375.17,-121.94L-372.79,-126.70L-367.41,-145.63L-353.72,-171.89L-346.63,-179.60L-337.81,-187.16L-326.50,-194.66L-316.43,-197.77L-305.44,-199.50L-295.11,-199.77L-286.50,-198.56L-276.18,-194.46L-269.15,-187.69L-264.53,-173.89" />
        <path d="M-161.29,287.19L-186.45,288.99L-201.62,285.67L-210.17,279.77L-216.44,270.35" />
        <path d="M-211.81,275.25L-230.49,250.89L-242.08,224.03L-242.93,219.38" />
      </g>
      <g id="f9" style="--index:9; opacity:0;" class="frame">
        <path d="M-264.86,-180.25L-263.59,-175.20L-263.40,-164.06L-267.63,-143.77L-272.41,-127.77L-277.89,-114.03L-283.39,-102.75L-290.54,-91.61L-298.29,-81.99L-307.57,-73.30L-345.63,-43.91L-366.16,-29.03L-381.92,-16.30L-404.10,8.84L-411.98,20.59L-420.92,37.58L-424.50,46.34L-429.01,73.94L-424.04,96.63L-408.93,118.06L-385.69,134.13" />
        <path d="M-242.93,219.38L-244.85,211.61L-253.06,196.89L-258.23,191.25L-269.49,182.95L-277.16,178.85" />
        <path d="M-280.47,178.31L-294.38,177.11L-309.34,178.70L-318.03,181.24L-328.02,185.28L-337.56,191.19L-346.42,199.67L-357.43,214.88L-370.93,242.35" />
      </g>
      <g id="f10" style="--index:10; opacity:0;" class="frame">
        <path d="M-390.59,134.72L-386.48,137.44L-373.85,142.28L-364.97,143.35L-351.01,141.02L-320.74,132.53L-299.29,122.50L-284.52,112.28L-255.19,74.86L-245.00,40.77L-239.83,15.34L-234.26,-5.88L-231.22,-15.50L-222.74,-36.61L-211.36,-57.64L-198.58,-73.30L-184.40,-84.17L-169.04,-90.88L-154.99,-93.67L-136.40,-94.33L-124.67,-87.89L-119.31,-71.24" />
        <path d="M-370.93,242.35L-383.04,264.57L-403.18,288.99" />
        <path d="M-405.95,290.71L-408.02,293.10L-411.58,294.42L-430.86,297.94L-443.10,297.67L-456.41,293.96L-469.25,289.25L-478.47,283.28L-488.79,275.11L-501.10,261.64" />
      </g>
      <g id="f11" style="--index:11; opacity:0;" class="frame">
        <path d="M-125.06,-75.16L-122.35,-74.63L-118.98,-47.55L-119.04,-26.84L-121.69,-15.11L-132.96,11.97L-140.70,26.89L-149.91,43.16L-164.54,65.97L-174.94,85.02L-182.67,102.14L-191.10,128.55L-193.87,144.74L-195.12,158.47L-195.39,172.74L-190.55,195.16L-181.49,209.96L-175.40,216.27L-166.52,223.30L-150.16,230.27L-134.55,230.80L-108.66,218.39L-91.11,198.81" />
        <path d="M-501.10,261.64L-504.48,253.96L-507.40,238.36L-508.07,218.85" />
        <path d="M-509.86,221.83L-508.07,204.92L-507.67,188.80L-503.81,168.75L-498.60,151.11L-495.08,143.41L-484.43,126.16" />
      </g>
    </g>
  </g>
</svg>